<?xml version="1.0" encoding="UTF-8" ?>
<svg version="1.1" width="32" height="32" xmlns="http://www.w3.org/2000/svg" shape-rendering="crispEdges">
<rect x="9" y="6" width="4" height="1" fill="#3D221D" />
<rect x="7" y="7" width="2" height="1" fill="#3D221D" />
<rect x="9" y="7" width="1" height="1" fill="#663931" />
<rect x="10" y="7" width="3" height="1" fill="#8F563B" />
<rect x="13" y="7" width="2" height="2" fill="#3D221D" />
<rect x="6" y="8" width="1" height="1" fill="#3D221D" />
<rect x="7" y="8" width="1" height="1" fill="#663931" />
<rect x="8" y="8" width="4" height="1" fill="#8F563B" />
<rect x="12" y="8" width="1" height="1" fill="#663931" />
<rect x="15" y="8" width="6" height="1" fill="#3D221D" />
<rect x="5" y="9" width="1" height="1" fill="#3D221D" />
<rect x="6" y="9" width="4" height="7" fill="#8F563B" />
<rect x="10" y="9" width="2" height="1" fill="#663931" />
<rect x="12" y="9" width="1" height="1" fill="#3D221D" />
<rect x="13" y="9" width="3" height="1" fill="#663931" />
<rect x="16" y="9" width="1" height="1" fill="#3D221D" />
<rect x="17" y="9" width="4" height="1" fill="#663931" />
<rect x="21" y="9" width="3" height="1" fill="#3D221D" />
<rect x="4" y="10" width="1" height="8" fill="#3D221D" />
<rect x="5" y="10" width="1" height="5" fill="#8F563B" />
<rect x="10" y="10" width="2" height="6" fill="#8F563B" />
<rect x="12" y="10" width="1" height="1" fill="#663931" />
<rect x="13" y="10" width="3" height="1" fill="#3D221D" />
<rect x="16" y="10" width="1" height="1" fill="#663931" />
<rect x="17" y="10" width="1" height="1" fill="#3D221D" />
<rect x="18" y="10" width="6" height="1" fill="#663931" />
<rect x="24" y="10" width="2" height="1" fill="#3D221D" />
<rect x="12" y="11" width="1" height="5" fill="#8F563B" />
<rect x="13" y="11" width="2" height="1" fill="#663931" />
<rect x="15" y="11" width="2" height="1" fill="#8F563B" />
<rect x="17" y="11" width="2" height="5" fill="#663931" />
<rect x="19" y="11" width="2" height="2" fill="#8F563B" />
<rect x="21" y="11" width="5" height="1" fill="#663931" />
<rect x="26" y="11" width="1" height="1" fill="#3D221D" />
<rect x="13" y="12" width="3" height="4" fill="#8F563B" />
<rect x="16" y="12" width="1" height="3" fill="#663931" />
<rect x="21" y="12" width="4" height="1" fill="#8F563B" />
<rect x="25" y="12" width="2" height="1" fill="#663931" />
<rect x="27" y="12" width="1" height="1" fill="#3D221D" />
<rect x="19" y="13" width="4" height="4" fill="#663931" />
<rect x="23" y="13" width="3" height="2" fill="#8F563B" />
<rect x="26" y="13" width="2" height="1" fill="#663931" />
<rect x="28" y="13" width="1" height="1" fill="#3D221D" />
<rect x="26" y="14" width="3" height="2" fill="#8F563B" />
<rect x="29" y="14" width="1" height="5" fill="#3D221D" />
<rect x="5" y="15" width="1" height="3" fill="#3D221D" />
<rect x="16" y="15" width="1" height="1" fill="#8F563B" />
<rect x="23" y="15" width="2" height="3" fill="#663931" />
<rect x="25" y="15" width="1" height="1" fill="#8F563B" />
<rect x="6" y="16" width="11" height="1" fill="#663931" />
<rect x="17" y="16" width="1" height="1" fill="#8F563B" />
<rect x="18" y="16" width="1" height="5" fill="#663931" />
<rect x="25" y="16" width="3" height="1" fill="#663931" />
<rect x="28" y="16" width="1" height="3" fill="#8F563B" />
<rect x="3" y="17" width="1" height="1" fill="#3D221D" />
<rect x="6" y="17" width="2" height="3" fill="#8F563B" />
<rect x="8" y="17" width="10" height="1" fill="#663931" />
<rect x="19" y="17" width="2" height="3" fill="#663931" />
<rect x="21" y="17" width="1" height="1" fill="#8F563B" />
<rect x="22" y="17" width="1" height="1" fill="#3D221D" />
<rect x="25" y="17" width="2" height="2" fill="#663931" />
<rect x="27" y="17" width="1" height="3" fill="#8F563B" />
<rect x="2" y="18" width="1" height="5" fill="#3D221D" />
<rect x="3" y="18" width="3" height="4" fill="#8F563B" />
<rect x="8" y="18" width="6" height="1" fill="#8F563B" />
<rect x="14" y="18" width="4" height="1" fill="#663931" />
<rect x="21" y="18" width="1" height="2" fill="#3D221D" />
<rect x="22" y="18" width="1" height="2" fill="#663931" />
<rect x="23" y="18" width="1" height="2" fill="#3D221D" />
<rect x="24" y="18" width="1" height="3" fill="#663931" />
<rect x="8" y="19" width="2" height="1" fill="#8F563B" />
<rect x="10" y="19" width="2" height="2" fill="#663931" />
<rect x="12" y="19" width="3" height="1" fill="#8F563B" />
<rect x="15" y="19" width="3" height="1" fill="#663931" />
<rect x="25" y="19" width="1" height="1" fill="#663931" />
<rect x="26" y="19" width="1" height="2" fill="#8F563B" />
<rect x="28" y="19" width="1" height="1" fill="#3D221D" />
<rect x="6" y="20" width="1" height="2" fill="#8F563B" />
<rect x="7" y="20" width="3" height="2" fill="#663931" />
<rect x="12" y="20" width="2" height="2" fill="#663931" />
<rect x="14" y="20" width="4" height="1" fill="#8F563B" />
<rect x="19" y="20" width="1" height="1" fill="#663931" />
<rect x="20" y="20" width="1" height="1" fill="#3D221D" />
<rect x="21" y="20" width="1" height="1" fill="#663931" />
<rect x="22" y="20" width="1" height="1" fill="#3D221D" />
<rect x="23" y="20" width="1" height="1" fill="#663931" />
<rect x="25" y="20" width="1" height="2" fill="#8F563B" />
<rect x="27" y="20" width="1" height="1" fill="#3D221D" />
<rect x="10" y="21" width="1" height="1" fill="#3D221D" />
<rect x="11" y="21" width="1" height="1" fill="#663931" />
<rect x="14" y="21" width="2" height="2" fill="#663931" />
<rect x="16" y="21" width="6" height="1" fill="#8F563B" />
<rect x="22" y="21" width="1" height="1" fill="#663931" />
<rect x="23" y="21" width="2" height="1" fill="#8F563B" />
<rect x="26" y="21" width="1" height="1" fill="#3D221D" />
<rect x="3" y="22" width="1" height="1" fill="#8F563B" />
<rect x="4" y="22" width="4" height="2" fill="#663931" />
<rect x="8" y="22" width="2" height="1" fill="#3D221D" />
<rect x="10" y="22" width="1" height="1" fill="#663931" />
<rect x="11" y="22" width="2" height="2" fill="#3D221D" />
<rect x="13" y="22" width="1" height="1" fill="#663931" />
<rect x="16" y="22" width="1" height="4" fill="#663931" />
<rect x="17" y="22" width="7" height="1" fill="#8F563B" />
<rect x="24" y="22" width="2" height="1" fill="#3D221D" />
<rect x="3" y="23" width="1" height="1" fill="#3D221D" />
<rect x="8" y="23" width="2" height="1" fill="#663931" />
<rect x="10" y="23" width="1" height="1" fill="#3D221D" />
<rect x="13" y="23" width="2" height="1" fill="#3D221D" />
<rect x="15" y="23" width="1" height="1" fill="#663931" />
<rect x="17" y="23" width="1" height="2" fill="#663931" />
<rect x="18" y="23" width="4" height="1" fill="#8F563B" />
<rect x="22" y="23" width="2" height="1" fill="#3D221D" />
<rect x="4" y="24" width="2" height="1" fill="#3D221D" />
<rect x="6" y="24" width="3" height="1" fill="#663931" />
<rect x="9" y="24" width="1" height="1" fill="#8F563B" />
<rect x="10" y="24" width="5" height="1" fill="#663931" />
<rect x="15" y="24" width="1" height="2" fill="#8F563B" />
<rect x="18" y="24" width="2" height="1" fill="#663931" />
<rect x="20" y="24" width="2" height="1" fill="#3D221D" />
<rect x="6" y="25" width="3" height="1" fill="#3D221D" />
<rect x="9" y="25" width="2" height="1" fill="#663931" />
<rect x="11" y="25" width="4" height="1" fill="#8F563B" />
<rect x="17" y="25" width="3" height="1" fill="#3D221D" />
<rect x="9" y="26" width="8" height="1" fill="#3D221D" />
</svg>