<?xml version="1.0" encoding="UTF-8" ?>
<svg version="1.1" width="32" height="32" xmlns="http://www.w3.org/2000/svg" shape-rendering="crispEdges">
<rect x="13" y="3" width="6" height="1" fill="#3D221D" />
<rect x="10" y="4" width="2" height="1" fill="#3D221D" />
<rect x="12" y="4" width="7" height="1" fill="#663931" />
<rect x="19" y="4" width="3" height="1" fill="#3D221D" />
<rect x="9" y="5" width="1" height="1" fill="#3D221D" />
<rect x="10" y="5" width="3" height="1" fill="#663931" />
<rect x="13" y="5" width="6" height="2" fill="#8F563B" />
<rect x="19" y="5" width="3" height="1" fill="#663931" />
<rect x="22" y="5" width="1" height="1" fill="#3D221D" />
<rect x="8" y="6" width="1" height="1" fill="#3D221D" />
<rect x="9" y="6" width="2" height="1" fill="#663931" />
<rect x="11" y="6" width="2" height="3" fill="#8F563B" />
<rect x="19" y="6" width="2" height="1" fill="#8F563B" />
<rect x="21" y="6" width="2" height="1" fill="#663931" />
<rect x="23" y="6" width="1" height="1" fill="#3D221D" />
<rect x="7" y="7" width="1" height="1" fill="#3D221D" />
<rect x="8" y="7" width="1" height="1" fill="#663931" />
<rect x="9" y="7" width="2" height="2" fill="#8F563B" />
<rect x="13" y="7" width="7" height="1" fill="#3D221D" />
<rect x="20" y="7" width="2" height="1" fill="#8F563B" />
<rect x="22" y="7" width="2" height="1" fill="#663931" />
<rect x="24" y="7" width="1" height="1" fill="#3D221D" />
<rect x="6" y="8" width="1" height="1" fill="#3D221D" />
<rect x="7" y="8" width="1" height="1" fill="#663931" />
<rect x="8" y="8" width="1" height="3" fill="#8F563B" />
<rect x="13" y="8" width="1" height="1" fill="#663931" />
<rect x="14" y="8" width="7" height="1" fill="#3D221D" />
<rect x="21" y="8" width="2" height="2" fill="#8F563B" />
<rect x="23" y="8" width="2" height="1" fill="#663931" />
<rect x="25" y="8" width="1" height="1" fill="#3D221D" />
<rect x="5" y="9" width="1" height="1" fill="#3D221D" />
<rect x="6" y="9" width="1" height="1" fill="#663931" />
<rect x="7" y="9" width="1" height="3" fill="#8F563B" />
<rect x="9" y="9" width="1" height="1" fill="#8F563B" />
<rect x="10" y="9" width="2" height="1" fill="#663931" />
<rect x="12" y="9" width="2" height="2" fill="#8F563B" />
<rect x="14" y="9" width="2" height="1" fill="#663931" />
<rect x="16" y="9" width="4" height="1" fill="#3D221D" />
<rect x="20" y="9" width="1" height="1" fill="#663931" />
<rect x="23" y="9" width="1" height="2" fill="#8F563B" />
<rect x="24" y="9" width="2" height="1" fill="#663931" />
<rect x="26" y="9" width="1" height="1" fill="#3D221D" />
<rect x="4" y="10" width="1" height="3" fill="#3D221D" />
<rect x="5" y="10" width="1" height="2" fill="#663931" />
<rect x="6" y="10" width="1" height="4" fill="#8F563B" />
<rect x="9" y="10" width="1" height="2" fill="#663931" />
<rect x="10" y="10" width="2" height="3" fill="#3D221D" />
<rect x="14" y="10" width="2" height="2" fill="#8F563B" />
<rect x="16" y="10" width="1" height="1" fill="#663931" />
<rect x="17" y="10" width="1" height="1" fill="#3D221D" />
<rect x="18" y="10" width="2" height="1" fill="#663931" />
<rect x="20" y="10" width="2" height="1" fill="#8F563B" />
<rect x="22" y="10" width="1" height="1" fill="#663931" />
<rect x="24" y="10" width="1" height="3" fill="#8F563B" />
<rect x="25" y="10" width="2" height="2" fill="#663931" />
<rect x="27" y="10" width="1" height="2" fill="#3D221D" />
<rect x="8" y="11" width="1" height="4" fill="#663931" />
<rect x="12" y="11" width="1" height="1" fill="#3D221D" />
<rect x="13" y="11" width="1" height="6" fill="#663931" />
<rect x="16" y="11" width="5" height="1" fill="#8F563B" />
<rect x="21" y="11" width="1" height="1" fill="#663931" />
<rect x="22" y="11" width="1" height="4" fill="#3D221D" />
<rect x="23" y="11" width="1" height="1" fill="#663931" />
<rect x="5" y="12" width="1" height="2" fill="#8F563B" />
<rect x="7" y="12" width="1" height="4" fill="#663931" />
<rect x="9" y="12" width="1" height="3" fill="#3D221D" />
<rect x="12" y="12" width="1" height="5" fill="#663931" />
<rect x="14" y="12" width="3" height="2" fill="#663931" />
<rect x="17" y="12" width="2" height="2" fill="#8F563B" />
<rect x="19" y="12" width="1" height="1" fill="#663931" />
<rect x="20" y="12" width="2" height="1" fill="#3D221D" />
<rect x="23" y="12" width="1" height="3" fill="#3D221D" />
<rect x="25" y="12" width="1" height="3" fill="#8F563B" />
<rect x="26" y="12" width="2" height="2" fill="#663931" />
<rect x="3" y="13" width="1" height="1" fill="#3D221D" />
<rect x="4" y="13" width="1" height="2" fill="#663931" />
<rect x="10" y="13" width="1" height="2" fill="#3D221D" />
<rect x="11" y="13" width="1" height="4" fill="#663931" />
<rect x="19" y="13" width="1" height="3" fill="#8F563B" />
<rect x="20" y="13" width="1" height="1" fill="#663931" />
<rect x="21" y="13" width="1" height="1" fill="#3D221D" />
<rect x="24" y="13" width="1" height="2" fill="#3D221D" />
<rect x="28" y="13" width="1" height="1" fill="#3D221D" />
<rect x="2" y="14" width="1" height="4" fill="#3D221D" />
<rect x="3" y="14" width="1" height="1" fill="#663931" />
<rect x="5" y="14" width="2" height="2" fill="#663931" />
<rect x="14" y="14" width="2" height="1" fill="#663931" />
<rect x="16" y="14" width="2" height="3" fill="#3D221D" />
<rect x="18" y="14" width="1" height="1" fill="#663931" />
<rect x="20" y="14" width="1" height="2" fill="#8F563B" />
<rect x="21" y="14" width="1" height="6" fill="#663931" />
<rect x="26" y="14" width="1" height="1" fill="#8F563B" />
<rect x="27" y="14" width="2" height="2" fill="#663931" />
<rect x="29" y="14" width="1" height="4" fill="#3D221D" />
<rect x="3" y="15" width="2" height="3" fill="#8F563B" />
<rect x="8" y="15" width="1" height="1" fill="#3D221D" />
<rect x="9" y="15" width="2" height="2" fill="#663931" />
<rect x="14" y="15" width="2" height="1" fill="#3D221D" />
<rect x="18" y="15" width="1" height="3" fill="#3D221D" />
<rect x="22" y="15" width="5" height="1" fill="#663931" />
<rect x="5" y="16" width="4" height="2" fill="#8F563B" />
<rect x="14" y="16" width="1" height="1" fill="#663931" />
<rect x="15" y="16" width="1" height="1" fill="#3D221D" />
<rect x="19" y="16" width="2" height="3" fill="#663931" />
<rect x="22" y="16" width="4" height="1" fill="#663931" />
<rect x="26" y="16" width="3" height="2" fill="#8F563B" />
<rect x="9" y="17" width="7" height="1" fill="#8F563B" />
<rect x="16" y="17" width="1" height="2" fill="#663931" />
<rect x="17" y="17" width="1" height="1" fill="#3D221D" />
<rect x="22" y="17" width="3" height="2" fill="#663931" />
<rect x="25" y="17" width="1" height="2" fill="#8F563B" />
<rect x="3" y="18" width="1" height="1" fill="#3D221D" />
<rect x="4" y="18" width="2" height="1" fill="#663931" />
<rect x="6" y="18" width="7" height="1" fill="#8F563B" />
<rect x="13" y="18" width="3" height="1" fill="#663931" />
<rect x="17" y="18" width="2" height="1" fill="#663931" />
<rect x="26" y="18" width="2" height="1" fill="#8F563B" />
<rect x="28" y="18" width="1" height="1" fill="#3D221D" />
<rect x="4" y="19" width="1" height="3" fill="#3D221D" />
<rect x="5" y="19" width="4" height="1" fill="#663931" />
<rect x="9" y="19" width="12" height="1" fill="#8F563B" />
<rect x="22" y="19" width="2" height="2" fill="#3D221D" />
<rect x="24" y="19" width="2" height="1" fill="#663931" />
<rect x="26" y="19" width="1" height="2" fill="#8F563B" />
<rect x="27" y="19" width="1" height="1" fill="#663931" />
<rect x="5" y="20" width="3" height="2" fill="#663931" />
<rect x="8" y="20" width="4" height="1" fill="#3D221D" />
<rect x="12" y="20" width="2" height="1" fill="#663931" />
<rect x="14" y="20" width="6" height="1" fill="#8F563B" />
<rect x="20" y="20" width="2" height="1" fill="#3D221D" />
<rect x="24" y="20" width="1" height="1" fill="#663931" />
<rect x="25" y="20" width="1" height="2" fill="#8F563B" />
<rect x="27" y="20" width="1" height="2" fill="#3D221D" />
<rect x="8" y="21" width="3" height="1" fill="#663931" />
<rect x="11" y="21" width="4" height="1" fill="#3D221D" />
<rect x="15" y="21" width="7" height="1" fill="#663931" />
<rect x="22" y="21" width="1" height="1" fill="#3D221D" />
<rect x="23" y="21" width="1" height="1" fill="#663931" />
<rect x="24" y="21" width="1" height="1" fill="#8F563B" />
<rect x="26" y="21" width="1" height="1" fill="#663931" />
<rect x="5" y="22" width="1" height="1" fill="#3D221D" />
<rect x="6" y="22" width="2" height="1" fill="#663931" />
<rect x="8" y="22" width="2" height="1" fill="#8F563B" />
<rect x="10" y="22" width="3" height="1" fill="#663931" />
<rect x="13" y="22" width="4" height="1" fill="#3D221D" />
<rect x="17" y="22" width="6" height="1" fill="#663931" />
<rect x="23" y="22" width="1" height="1" fill="#8F563B" />
<rect x="24" y="22" width="2" height="1" fill="#663931" />
<rect x="26" y="22" width="1" height="1" fill="#3D221D" />
<rect x="6" y="23" width="1" height="1" fill="#3D221D" />
<rect x="7" y="23" width="2" height="1" fill="#663931" />
<rect x="9" y="23" width="3" height="1" fill="#8F563B" />
<rect x="12" y="23" width="2" height="1" fill="#663931" />
<rect x="14" y="23" width="5" height="1" fill="#3D221D" />
<rect x="19" y="23" width="1" height="2" fill="#663931" />
<rect x="20" y="23" width="3" height="1" fill="#8F563B" />
<rect x="23" y="23" width="2" height="1" fill="#663931" />
<rect x="25" y="23" width="1" height="1" fill="#3D221D" />
<rect x="7" y="24" width="1" height="1" fill="#3D221D" />
<rect x="8" y="24" width="3" height="1" fill="#663931" />
<rect x="11" y="24" width="2" height="1" fill="#8F563B" />
<rect x="13" y="24" width="3" height="1" fill="#3D221D" />
<rect x="16" y="24" width="3" height="2" fill="#663931" />
<rect x="20" y="24" width="1" height="1" fill="#663931" />
<rect x="21" y="24" width="1" height="2" fill="#8F563B" />
<rect x="22" y="24" width="2" height="1" fill="#663931" />
<rect x="24" y="24" width="1" height="1" fill="#3D221D" />
<rect x="8" y="25" width="1" height="1" fill="#3D221D" />
<rect x="9" y="25" width="3" height="1" fill="#663931" />
<rect x="12" y="25" width="1" height="1" fill="#8F563B" />
<rect x="13" y="25" width="3" height="1" fill="#663931" />
<rect x="19" y="25" width="2" height="1" fill="#8F563B" />
<rect x="22" y="25" width="1" height="1" fill="#663931" />
<rect x="23" y="25" width="1" height="1" fill="#3D221D" />
<rect x="9" y="26" width="1" height="1" fill="#3D221D" />
<rect x="10" y="26" width="3" height="1" fill="#663931" />
<rect x="13" y="26" width="7" height="1" fill="#8F563B" />
<rect x="20" y="26" width="2" height="1" fill="#663931" />
<rect x="22" y="26" width="1" height="1" fill="#3D221D" />
<rect x="10" y="27" width="3" height="1" fill="#3D221D" />
<rect x="13" y="27" width="1" height="1" fill="#663931" />
<rect x="14" y="27" width="2" height="1" fill="#8F563B" />
<rect x="16" y="27" width="3" height="1" fill="#663931" />
<rect x="19" y="27" width="3" height="1" fill="#3D221D" />
<rect x="13" y="28" width="6" height="1" fill="#3D221D" />
</svg>