<?xml version="1.0" encoding="UTF-8" ?>
<svg version="1.1" width="32" height="32" xmlns="http://www.w3.org/2000/svg" shape-rendering="crispEdges">
<rect x="19" y="6" width="2" height="1" fill="#4C4C4C" />
<rect x="15" y="7" width="4" height="1" fill="#4C4C4C" />
<rect x="19" y="7" width="2" height="1" fill="#696A6A" />
<rect x="21" y="7" width="3" height="1" fill="#4C4C4C" />
<rect x="13" y="8" width="2" height="1" fill="#4C4C4C" />
<rect x="15" y="8" width="3" height="1" fill="#696A6A" />
<rect x="18" y="8" width="3" height="3" fill="#847E87" />
<rect x="21" y="8" width="1" height="1" fill="#696A6A" />
<rect x="22" y="8" width="1" height="3" fill="#847E87" />
<rect x="23" y="8" width="1" height="1" fill="#696A6A" />
<rect x="24" y="8" width="1" height="1" fill="#4C4C4C" />
<rect x="11" y="9" width="2" height="1" fill="#4C4C4C" />
<rect x="13" y="9" width="2" height="1" fill="#696A6A" />
<rect x="15" y="9" width="3" height="2" fill="#847E87" />
<rect x="21" y="9" width="1" height="1" fill="#847E87" />
<rect x="23" y="9" width="1" height="2" fill="#847E87" />
<rect x="24" y="9" width="1" height="1" fill="#696A6A" />
<rect x="25" y="9" width="1" height="5" fill="#4C4C4C" />
<rect x="8" y="10" width="3" height="1" fill="#4C4C4C" />
<rect x="11" y="10" width="1" height="1" fill="#696A6A" />
<rect x="12" y="10" width="3" height="2" fill="#847E87" />
<rect x="21" y="10" width="1" height="2" fill="#696A6A" />
<rect x="24" y="10" width="1" height="1" fill="#847E87" />
<rect x="7" y="11" width="1" height="1" fill="#4C4C4C" />
<rect x="8" y="11" width="1" height="2" fill="#696A6A" />
<rect x="9" y="11" width="3" height="1" fill="#847E87" />
<rect x="15" y="11" width="1" height="2" fill="#847E87" />
<rect x="16" y="11" width="2" height="1" fill="#696A6A" />
<rect x="18" y="11" width="2" height="1" fill="#4C4C4C" />
<rect x="20" y="11" width="1" height="1" fill="#696A6A" />
<rect x="22" y="11" width="2" height="1" fill="#696A6A" />
<rect x="24" y="11" width="1" height="4" fill="#4C4C4C" />
<rect x="26" y="11" width="1" height="2" fill="#4C4C4C" />
<rect x="6" y="12" width="1" height="3" fill="#4C4C4C" />
<rect x="7" y="12" width="1" height="2" fill="#696A6A" />
<rect x="9" y="12" width="1" height="1" fill="#696A6A" />
<rect x="10" y="12" width="3" height="1" fill="#847E87" />
<rect x="13" y="12" width="1" height="2" fill="#696A6A" />
<rect x="14" y="12" width="1" height="1" fill="#847E87" />
<rect x="16" y="12" width="2" height="2" fill="#847E87" />
<rect x="18" y="12" width="2" height="1" fill="#696A6A" />
<rect x="20" y="12" width="4" height="1" fill="#4C4C4C" />
<rect x="27" y="12" width="1" height="1" fill="#4C4C4C" />
<rect x="5" y="13" width="1" height="2" fill="#4C4C4C" />
<rect x="8" y="13" width="3" height="1" fill="#847E87" />
<rect x="11" y="13" width="2" height="1" fill="#696A6A" />
<rect x="14" y="13" width="2" height="3" fill="#696A6A" />
<rect x="18" y="13" width="1" height="2" fill="#847E87" />
<rect x="19" y="13" width="4" height="1" fill="#696A6A" />
<rect x="23" y="13" width="1" height="1" fill="#4C4C4C" />
<rect x="26" y="13" width="2" height="3" fill="#696A6A" />
<rect x="28" y="13" width="1" height="2" fill="#4C4C4C" />
<rect x="7" y="14" width="2" height="2" fill="#4C4C4C" />
<rect x="9" y="14" width="3" height="1" fill="#696A6A" />
<rect x="12" y="14" width="2" height="3" fill="#4C4C4C" />
<rect x="16" y="14" width="2" height="3" fill="#696A6A" />
<rect x="19" y="14" width="3" height="1" fill="#847E87" />
<rect x="22" y="14" width="2" height="1" fill="#696A6A" />
<rect x="25" y="14" width="1" height="8" fill="#696A6A" />
<rect x="4" y="15" width="1" height="3" fill="#4C4C4C" />
<rect x="5" y="15" width="2" height="1" fill="#696A6A" />
<rect x="9" y="15" width="3" height="2" fill="#4C4C4C" />
<rect x="18" y="15" width="5" height="1" fill="#696A6A" />
<rect x="23" y="15" width="1" height="3" fill="#4C4C4C" />
<rect x="24" y="15" width="1" height="7" fill="#696A6A" />
<rect x="28" y="15" width="1" height="1" fill="#696A6A" />
<rect x="29" y="15" width="1" height="5" fill="#4C4C4C" />
<rect x="5" y="16" width="2" height="3" fill="#847E87" />
<rect x="7" y="16" width="2" height="1" fill="#696A6A" />
<rect x="14" y="16" width="1" height="1" fill="#4C4C4C" />
<rect x="15" y="16" width="1" height="4" fill="#696A6A" />
<rect x="18" y="16" width="1" height="2" fill="#696A6A" />
<rect x="19" y="16" width="4" height="1" fill="#4C4C4C" />
<rect x="26" y="16" width="1" height="1" fill="#696A6A" />
<rect x="27" y="16" width="2" height="3" fill="#847E87" />
<rect x="3" y="17" width="1" height="4" fill="#4C4C4C" />
<rect x="7" y="17" width="1" height="1" fill="#847E87" />
<rect x="8" y="17" width="1" height="3" fill="#696A6A" />
<rect x="9" y="17" width="2" height="1" fill="#4C4C4C" />
<rect x="11" y="17" width="1" height="4" fill="#696A6A" />
<rect x="12" y="17" width="1" height="1" fill="#4C4C4C" />
<rect x="13" y="17" width="2" height="4" fill="#696A6A" />
<rect x="16" y="17" width="1" height="1" fill="#4C4C4C" />
<rect x="17" y="17" width="1" height="1" fill="#696A6A" />
<rect x="19" y="17" width="1" height="2" fill="#696A6A" />
<rect x="20" y="17" width="3" height="1" fill="#4C4C4C" />
<rect x="26" y="17" width="1" height="4" fill="#847E87" />
<rect x="4" y="18" width="1" height="1" fill="#847E87" />
<rect x="7" y="18" width="1" height="3" fill="#696A6A" />
<rect x="9" y="18" width="2" height="3" fill="#696A6A" />
<rect x="12" y="18" width="1" height="2" fill="#696A6A" />
<rect x="16" y="18" width="1" height="1" fill="#696A6A" />
<rect x="17" y="18" width="1" height="1" fill="#4C4C4C" />
<rect x="18" y="18" width="1" height="3" fill="#847E87" />
<rect x="20" y="18" width="4" height="1" fill="#696A6A" />
<rect x="4" y="19" width="3" height="2" fill="#696A6A" />
<rect x="16" y="19" width="1" height="1" fill="#4C4C4C" />
<rect x="17" y="19" width="1" height="1" fill="#696A6A" />
<rect x="19" y="19" width="1" height="1" fill="#847E87" />
<rect x="20" y="19" width="1" height="1" fill="#696A6A" />
<rect x="21" y="19" width="3" height="1" fill="#847E87" />
<rect x="27" y="19" width="1" height="1" fill="#847E87" />
<rect x="28" y="19" width="1" height="2" fill="#4C4C4C" />
<rect x="8" y="20" width="1" height="1" fill="#4C4C4C" />
<rect x="12" y="20" width="1" height="1" fill="#847E87" />
<rect x="15" y="20" width="1" height="1" fill="#4C4C4C" />
<rect x="16" y="20" width="2" height="2" fill="#847E87" />
<rect x="19" y="20" width="1" height="2" fill="#696A6A" />
<rect x="20" y="20" width="1" height="1" fill="#847E87" />
<rect x="21" y="20" width="2" height="1" fill="#696A6A" />
<rect x="23" y="20" width="1" height="1" fill="#4C4C4C" />
<rect x="27" y="20" width="1" height="2" fill="#4C4C4C" />
<rect x="2" y="21" width="1" height="3" fill="#4C4C4C" />
<rect x="3" y="21" width="2" height="3" fill="#696A6A" />
<rect x="5" y="21" width="1" height="1" fill="#847E87" />
<rect x="6" y="21" width="1" height="1" fill="#696A6A" />
<rect x="7" y="21" width="1" height="1" fill="#4C4C4C" />
<rect x="8" y="21" width="1" height="2" fill="#696A6A" />
<rect x="9" y="21" width="3" height="1" fill="#847E87" />
<rect x="12" y="21" width="1" height="2" fill="#696A6A" />
<rect x="13" y="21" width="2" height="1" fill="#4C4C4C" />
<rect x="15" y="21" width="1" height="3" fill="#847E87" />
<rect x="18" y="21" width="1" height="1" fill="#696A6A" />
<rect x="20" y="21" width="1" height="1" fill="#696A6A" />
<rect x="21" y="21" width="2" height="2" fill="#4C4C4C" />
<rect x="23" y="21" width="1" height="1" fill="#696A6A" />
<rect x="26" y="21" width="1" height="1" fill="#4C4C4C" />
<rect x="5" y="22" width="1" height="2" fill="#696A6A" />
<rect x="6" y="22" width="2" height="2" fill="#847E87" />
<rect x="9" y="22" width="1" height="1" fill="#696A6A" />
<rect x="10" y="22" width="2" height="2" fill="#847E87" />
<rect x="13" y="22" width="1" height="1" fill="#696A6A" />
<rect x="14" y="22" width="1" height="2" fill="#847E87" />
<rect x="16" y="22" width="1" height="1" fill="#847E87" />
<rect x="17" y="22" width="1" height="1" fill="#696A6A" />
<rect x="18" y="22" width="3" height="1" fill="#4C4C4C" />
<rect x="23" y="22" width="3" height="1" fill="#4C4C4C" />
<rect x="8" y="23" width="2" height="1" fill="#847E87" />
<rect x="12" y="23" width="2" height="1" fill="#847E87" />
<rect x="16" y="23" width="1" height="1" fill="#696A6A" />
<rect x="17" y="23" width="1" height="1" fill="#4C4C4C" />
<rect x="3" y="24" width="5" height="1" fill="#4C4C4C" />
<rect x="8" y="24" width="4" height="1" fill="#696A6A" />
<rect x="12" y="24" width="1" height="1" fill="#847E87" />
<rect x="13" y="24" width="2" height="1" fill="#696A6A" />
<rect x="15" y="24" width="2" height="1" fill="#4C4C4C" />
<rect x="8" y="25" width="7" height="1" fill="#4C4C4C" />
</svg>