<?xml version="1.0" encoding="UTF-8" ?>
<svg version="1.1" width="32" height="32" xmlns="http://www.w3.org/2000/svg" shape-rendering="crispEdges">
<rect x="15" y="4" width="1" height="1" fill="#BBCBD5" />
<rect x="15" y="5" width="1" height="2" fill="#DEE7EC" />
<rect x="16" y="6" width="1" height="1" fill="#BBCBD5" />
<rect x="15" y="7" width="1" height="18" fill="#FFFFFF" />
<rect x="16" y="7" width="1" height="1" fill="#DEE7EC" />
<rect x="16" y="8" width="1" height="15" fill="#FFFFFF" />
<rect x="14" y="14" width="1" height="4" fill="#FFFFFF" />
<rect x="17" y="14" width="1" height="4" fill="#FFFFFF" />
<rect x="6" y="15" width="1" height="1" fill="#BBCBD5" />
<rect x="7" y="15" width="2" height="1" fill="#DEE7EC" />
<rect x="9" y="15" width="5" height="2" fill="#FFFFFF" />
<rect x="18" y="15" width="4" height="2" fill="#FFFFFF" />
<rect x="22" y="15" width="3" height="1" fill="#DEE7EC" />
<rect x="25" y="15" width="1" height="1" fill="#BBCBD5" />
<rect x="4" y="16" width="1" height="1" fill="#BBCBD5" />
<rect x="5" y="16" width="2" height="1" fill="#DEE7EC" />
<rect x="7" y="16" width="2" height="1" fill="#FFFFFF" />
<rect x="22" y="16" width="3" height="1" fill="#FFFFFF" />
<rect x="25" y="16" width="1" height="1" fill="#DEE7EC" />
<rect x="26" y="16" width="1" height="1" fill="#BBCBD5" />
<rect x="16" y="23" width="1" height="2" fill="#DEE7EC" />
<rect x="15" y="25" width="1" height="2" fill="#DEE7EC" />
<rect x="16" y="25" width="1" height="1" fill="#BBCBD5" />
<rect x="15" y="27" width="1" height="1" fill="#BBCBD5" />
</svg>