<?xml version="1.0" encoding="UTF-8" ?>
<svg version="1.1" width="32" height="32" xmlns="http://www.w3.org/2000/svg" shape-rendering="crispEdges">
<rect x="15" y="7" width="1" height="5" fill="#BBCBD5" />
<rect x="16" y="8" width="1" height="2" fill="#BBCBD5" />
<rect x="16" y="10" width="1" height="2" fill="#DEE7EC" />
<rect x="15" y="12" width="1" height="1" fill="#DEE7EC" />
<rect x="16" y="12" width="1" height="7" fill="#FFFFFF" />
<rect x="15" y="13" width="1" height="8" fill="#FFFFFF" />
<rect x="9" y="15" width="2" height="1" fill="#BBCBD5" />
<rect x="11" y="15" width="1" height="1" fill="#DEE7EC" />
<rect x="12" y="15" width="3" height="2" fill="#FFFFFF" />
<rect x="17" y="15" width="2" height="2" fill="#FFFFFF" />
<rect x="19" y="15" width="1" height="2" fill="#DEE7EC" />
<rect x="20" y="15" width="2" height="1" fill="#BBCBD5" />
<rect x="7" y="16" width="3" height="1" fill="#BBCBD5" />
<rect x="10" y="16" width="1" height="1" fill="#DEE7EC" />
<rect x="11" y="16" width="1" height="1" fill="#FFFFFF" />
<rect x="20" y="16" width="2" height="1" fill="#DEE7EC" />
<rect x="22" y="16" width="3" height="1" fill="#BBCBD5" />
<rect x="16" y="19" width="1" height="1" fill="#DEE7EC" />
<rect x="16" y="20" width="1" height="3" fill="#BBCBD5" />
<rect x="15" y="21" width="1" height="1" fill="#DEE7EC" />
<rect x="15" y="22" width="1" height="3" fill="#BBCBD5" />
</svg>