<?xml version="1.0" encoding="UTF-8" ?>
<svg version="1.1" width="21" height="21" xmlns="http://www.w3.org/2000/svg" shape-rendering="crispEdges">
<rect x="17" y="3" width="3" height="1" fill="#EBEBEB" />
<rect x="16" y="4" width="3" height="1" fill="#EBEBEB" />
<rect x="15" y="5" width="3" height="1" fill="#EBEBEB" />
<rect x="18" y="5" width="1" height="1" fill="#E3E3E3" />
<rect x="13" y="6" width="4" height="1" fill="#EBEBEB" />
<rect x="17" y="6" width="1" height="2" fill="#E3E3E3" />
<rect x="10" y="7" width="6" height="1" fill="#EBEBEB" />
<rect x="16" y="7" width="1" height="7" fill="#E3E3E3" />
<rect x="7" y="8" width="8" height="1" fill="#EBEBEB" />
<rect x="15" y="8" width="1" height="5" fill="#E3E3E3" />
<rect x="4" y="9" width="10" height="1" fill="#EBEBEB" />
<rect x="14" y="9" width="1" height="3" fill="#E3E3E3" />
<rect x="1" y="10" width="12" height="1" fill="#FFFFFF" />
<rect x="13" y="10" width="1" height="1" fill="#E3E3E3" />
<rect x="4" y="11" width="10" height="1" fill="#FFFFFF" />
<rect x="7" y="12" width="8" height="1" fill="#FFFFFF" />
<rect x="10" y="13" width="6" height="1" fill="#FFFFFF" />
<rect x="17" y="13" width="1" height="2" fill="#E3E3E3" />
<rect x="13" y="14" width="4" height="1" fill="#FFFFFF" />
<rect x="15" y="15" width="3" height="1" fill="#FFFFFF" />
<rect x="18" y="15" width="1" height="1" fill="#E3E3E3" />
<rect x="16" y="16" width="3" height="1" fill="#FFFFFF" />
<rect x="17" y="17" width="3" height="1" fill="#FFFFFF" />
</svg>